<?xml version="1.0" encoding="utf-8"?>
<!-- Generator: Adobe Illustrator 19.0.0, SVG Export Plug-In . SVG Version: 6.00 Build 0)  -->
<svg version="1.1" id="layer" xmlns="http://www.w3.org/2000/svg" xmlns:xlink="http://www.w3.org/1999/xlink" x="0px" y="0px" viewBox="-153 -46 652 652" style="" xml:space="preserve">


<path d="M-58.3,253.2c1.1-3,1.5-6,1.5-8.3c0-10.2-8.6-15.8-22.2-15.8c-21.1,0-37.6,14.7-37.6,33.1c0,6.8,3.4,11.3,8.3,15l10.5,8.3
	c2.3,1.9,3,4.1,3,6c0,5.3-3.8,12-9.4,12c-3.4,0-4.9-1.5-4.9-4.1c0-3,1.5-7.1,3-11.7h-21.4c-2.3,5.3-4.5,11.3-4.5,16.2
	c0,9.8,8.3,16.9,23.3,16.9c21.8,0,38-15.4,38-36.8c0-4.5-2.3-9.8-7.5-13.9l-11.3-8.6c-1.9-1.5-3-3.4-3-6c0-4.5,3-9.8,8.6-9.8
	c2.6,0,4.5,1.1,4.5,3.8c0,1.9-0.8,3.8-2.6,9.4h21.8L-58.3,253.2z M-17.3,256.6l-13.5,37.2c-2.6,7.1-6,10.5-10.2,10.5
	c-3.8,0-6-2.6-3-10.5l13.5-37.2c2.6-7.9,6.4-10.2,10.2-10.2S-14.7,249.4-17.3,256.6 M3.7,260.3c7.1-19.9-2.6-30.8-20.3-30.8
	s-30.8,10.9-37.6,30.8l-11.3,30.1c-7.1,19.5,1.9,30.5,19.5,30.5c19.2,0,31.6-9.8,38.7-30.5L3.7,260.3z M57.8,294.9L81.2,231H59.4
	l-22.9,63.2c-2.3,6-4.9,8.3-9.8,8.3c-3.4,0-6-1.1-6-3.8l1.1-4.5L45.1,231H22.9l-23.3,63.9c-1.1,3.8-1.9,7.1-1.9,10.2
	c0,10.5,9.4,15.8,24.8,15.8C41.3,320.9,51.5,313,57.8,294.9 M118.4,318.6l32-87.6h-19.2l-11.3,15.4h5.6L115,275.8h-0.8L112,231H92.1
	l-11.7,15.4H86l-25.9,72.2h19.2l16.2-45.1h0.8l3.8,45.1H118.4z M187.2,252.1c0,2.6-0.8,5.6-1.9,9l-10.5,28.6
	c-3.4,9-7.1,13.5-14.7,13.5H156l20.7-56.8h3.4C184.2,246.4,187.2,248.7,187.2,252.1 M206.7,263.7c2.3-7.1,3.8-12.4,3.8-16.2
	c0-9.4-10.5-16.5-23.3-16.5h-26.7l-32,87.6h26.7c22.2,0,34.2-6.8,43.2-31.6L206.7,263.7z M254.1,250.9c0,6.8-6,16.2-13.5,16.2h-5.3
	l7.9-21.4h4.9c4.1,0,6,1.9,6,5.6 M230.4,280.6h5.3c4.5,0,6,2.6,6,5.6c0,8.3-5.3,18-13.5,18h-6.4L230.4,280.6z M276.6,249.4
	c0-9.8-6.4-18.4-22.6-18.4h-27.4l-32,88h31.2c21.8,0,38.3-12.4,38.3-32.7c0-6-3-10.9-7.9-13.9l0.4-0.4
	C267.6,268.6,276.6,260,276.6,249.4 M317.2,256.6l-13.9,37.2c-2.6,7.1-5.6,10.5-10.2,10.5c-3.8,0-5.6-2.6-3-10.5l13.5-37.2
	c3-7.9,6.4-10.2,10.2-10.2S319.9,249.4,317.2,256.6 M337.9,260.3c7.1-19.9-2.6-30.8-20.3-30.8c-17.7,0-30.5,10.9-37.6,30.8
	l-10.9,30.1c-7.1,19.5,1.9,30.5,19.2,30.5c19.2,0,31.6-9.8,39.1-30.5L337.9,260.3z M381.9,274.6L418,231h-24.8l-25.6,32.3h-0.8
	l12-32.3h-21.8l-32,87.6h21.8l14.3-39.1h0.8l0.8,39.1h23.7L381.9,274.6z M468,244.9c0-10.2-8.6-15.8-22.2-15.8
	c-21.1,0-37.6,14.7-37.6,33.1c0,6.8,3.4,11.3,8.3,15l10.5,8.3c2.3,1.9,3,4.1,3,6c0,5.3-4.1,12-9.4,12c-3.4,0-4.9-1.5-4.9-4.1
	c0-3,1.5-7.1,3-11.7h-21.4c-2.3,5.3-4.5,11.3-4.5,16.2c0,9.8,8.3,16.9,23.3,16.9c21.8,0,38-15.4,38-36.8c0-4.5-1.9-9.8-7.5-13.9
	l-11.3-8.6c-1.9-1.5-3-3.4-3-6c0-4.5,3.4-9.8,8.6-9.8c2.6,0,4.5,1.1,4.5,3.8c0,1.9-0.8,3.8-2.6,9.4h21.8l1.9-5.6

	C467.6,250.2,468,247.2,468,244.9"/>
</svg>
